# xmcd
#
# Track frame offsets: 
#        150
#        9724
#        37080
#        60328
#        72670
#        94244
#        131741
#        157852
#        178108
#        215104
#        239137
#
# Disc length: 3556 seconds
#
# Revision: 0
# Processed by: cddbd v1.5.2PL0 Copyright (c) Steve Scherf et al.
# Submitted via: ExactAudioCopy v1.0b3
#
DISCID=a60de20b
DTITLE=Loudness - The Sun Will Rise Again
DYEAR=2014
DGENRE=Heavy Metal
TTITLE0=Nourishment Of The Mind
TTITLE1=Got To Be Strong
TTITLE2=Never Ending Fire
TTITLE3=The Metal Man
TTITLE4=Mortality
TTITLE5=The Best
TTITLE6=The Sun Will Rise Again
TTITLE7=Rock You Wild
TTITLE8=Greatest Ever Heavy Metal
TTITLE9=Shout
TTITLE10=Not Alone
EXTD=
EXTT0=
EXTT1=
EXTT2=
EXTT3=
EXTT4=
EXTT5=
EXTT6=
EXTT7=
EXTT8=
EXTT9=
EXTT10=
PLAYORDER=
